
<svg xmlns="http://www.w3.org/2000/svg" version="1.1" xmlns:xlink="http://www.w3.org/1999/xlink" preserveAspectRatio="none" x="0px" y="0px" width="3840px" height="2160px" viewBox="0 0 3840 2160">
<defs>
<g id="Layer1_0_FILL">
<path fill="#0066CC" stroke="none" d="
M 1404.6 780.15
Q 1395.6 783.9 1392.85 785.2 1386.4 788.35 1382.2 792 1377.1 796.4 1374.65 802.3 1372.05 808.7 1373.7 814.55 1374.8 818.5 1378.45 823.25 1380.5 825.9 1384.75 831.2 1390.3 839.15 1391.1 849.25 1391.9 859.4 1387.55 868.05 1383.2 876.8 1374.55 882.15 1365.9 887.5 1356.2 887.4 1342.85 887.3 1331.15 877.3 1320.55 868.25 1314.65 854.35 1309.4 842 1307.45 838.9 1302.45 830.8 1295.45 829.35 1290.65 828.35 1284.95 830.55 1281.1 832 1275.15 835.8
L 1223.85 868.15
Q 1212.5 875.3 1206.55 878.5 1196.65 883.85 1188.1 886.4 1179.05 889.05 1175.4 891.1 1173.0314453125 892.41171875 1171.45 894 1167.894921875 893.8501953125 1164.35 896.5 1159.6 900 1158.35 905.55 1157.3 910.35 1158.5 916.35 1159.25 920.2 1161.65 926.9
L 1183.55 988.95
Q 1185.55 994.6 1187.3 997.55 1189.9 1002 1193.6 1003.85 1198.2 1006.15 1204.2 1004.55 1209.15 1003.15 1214.2 999.35 1217.2 997.15 1223 992.4 1228.2 988.5 1232.65 987.2 1244.15 983.95 1254.05 993.95 1263.6 1003.6 1263.35 1016.3 1263.1 1027.5 1256.35 1039.25 1251.25 1048.1 1241.25 1059 1234.75 1066.1 1232.1 1070.45 1227.95 1077.4 1228.8 1083.7 1229.35 1087.6 1232 1091.9 1233.25 1093.95 1237.3 1099.15 1258.65 1126.75 1267 1160.45 1268.6 1166.95 1269.7 1169.6 1271.7 1174.55 1275.05 1177 1279.45 1180.3 1285.55 1179.6 1289.8 1179.1 1297.2 1176.1 1306.55 1172.25 1309.35 1171.45 1316.3 1169.45 1321.45 1170.7 1328.35 1172.35 1332.4 1179.45 1336.25 1186.15 1335.45 1193.75 1334.2 1205.95 1321.7 1219.2 1313.7 1227.75 1311.85 1230.35 1306.95 1237.1 1306.9 1243.45 1306.85 1248.5 1310.05 1254.3 1311.4 1256.8 1316.55 1264.1 1332.8 1286.95 1339.6 1314.3 1341.95 1323.95 1345.1 1329.2 1349.65 1336.7 1356.4 1336.65 1361.15 1336.6 1366.95 1331.75 1375.05 1324.85 1376.7 1323.95 1386.05 1318.85 1396.65 1325.4 1407 1331.8 1409.05 1342.85 1410.9 1352.95 1406.2 1363.95 1402.15 1373.45 1393.95 1382.25 1386.85 1389.85 1385.05 1392.5 1380.75 1398.75 1381.25 1404.5 1381.55 1408.05 1383.85 1412.1 1384.8 1413.8 1388.45 1418.95 1403.45 1439.95 1408.1 1465.4 1408.8 1469.15 1410.05 1476.6 1411.3 1483.05 1413.25 1487.4 1415.75 1492.95 1420 1496.55 1424.7 1500.55 1430.1 1500.8 1436 1501.05 1442.35 1496.65 1445.3 1494.6 1452.75 1487.5 1468.8 1472.35 1489.7 1463.8 1510.6 1455.25 1532.65 1454.85 1543.15 1454.65 1548.8 1452.9 1557.4 1450.3 1559.15 1443.6 1560.45 1438.55 1557 1432.65 1555.35 1429.75 1549.5 1422.85 1537.95 1409.25 1535.35 1392.35 1532.55 1373.95 1542.6 1361.55 1548.1 1354.7 1554.85 1353.55 1563.3 1352.1 1573.5 1360.1 1580.85 1365.9 1586.4 1373.55 1591.95 1381.25 1595.1 1390.05 1598.9 1400.55 1599.55 1401.85 1602.7 1408.25 1607.5 1410.5 1614.65 1413.9 1623.5 1408.45 1628.95 1405.05 1637.55 1396 1647.45 1385.65 1659.7 1377.9 1671.9 1370.25 1685.55 1365.8 1689 1364.7 1695.9 1362.65 1701.9 1360.65 1705.85 1358.4 1710.85 1355.5 1714.05 1351.3 1717.55 1346.6 1717.85 1341.45 1718.1 1336.9 1715.65 1331.85 1714.2 1328.75 1710.2 1322.95 1706.15 1317.05 1704.65 1314.05 1702.15 1308.95 1702.3 1304.4 1702.5 1296.9 1709.3 1291.45 1715.7 1286.35 1723.85 1286.1 1730.9 1285.85 1738.95 1289 1744.8 1291.3 1752.9 1296.2 1762.55 1302.05 1768.75 1307.1 1776.85 1313.75 1781.7 1321.1 1783.75 1324.15 1787.7 1330.55 1791.5 1335.7 1795.8 1337.4 1800.05 1339.05 1805.1 1337.85 1809.65 1336.75 1813.7 1333.65 1816.85 1331.25 1820.55 1327.05 1822.7 1324.65 1826.8 1319.75 1835.6 1309.8 1847.2 1302.75 1858.75 1295.75 1871.65 1292.5 1875.1 1291.7 1881.95 1290.2 1887.95 1288.75 1891.9 1286.9 1897 1284.5 1900.35 1280.55 1904 1276.15 1904.3 1271.15 1904.65 1264.85 1898.8 1257.15 1895.35 1252.95 1893.6 1250.8 1890.5 1246.95 1888.9 1244.2 1883.2 1234.2 1886.75 1221.95 1890.25 1209.8 1900.3 1203.75 1910.15 1197.85 1922.55 1199.75 1934.75 1201.6 1943 1209.95 1947.4 1214.45 1952.15 1222.7 1959.75 1235.85 1960.1 1236.4 1964.95 1243.8 1970.95 1248.1 1978.1 1253.15 1985.4 1252.7 1991.732421875 1252.2646484375 1998.95 1247 2008.16796875 1241.4095703125 2012.85 1238.35 2021.25 1232.9 2027.5 1227.85 2031.05 1225.05 2038.05 1219.2 2044.25 1214.35 2049.35 1211.85 2053.65 1209.75 2059.9 1208 2063.55 1207 2070.9 1205.2 2075.05 1204.15 2077.55 1203 2081.05 1201.4 2083.05 1199.05 2086.15 1195.35 2086.3 1189.2 2086.35 1185.05 2084.85 1178.2 2083.2 1170.4 2081.95 1166.3 2080 1159.8 2077.2 1155.1 2076.25 1153.5 2072.5 1148.15 2069.55 1143.9 2068.25 1141 2066.8 1137.8 2065.6 1132.15 2064.1 1125.3 2063.35 1123.1 2063.2607421875 1122.83515625 2063.15 1122.55 2064.5 1119.4705078125 2064.5 1115.35 2064.5 1110.4 2062.4 1102.8
L 2051.15 1061.25
Q 2049.35 1054.5 2047.2 1050.75 2044.15 1045.4 2039.5 1043.85 2034.35 1042.15 2027.75 1045.45 2026.8 1045.95 2016.65 1052.5 2010.25 1056.65 2002.75 1058.7 1995.3 1060.8 1987.65 1060.55 1977.85 1060.2 1972.8 1055.7 1966.85 1050.5 1965.8 1037.75 1964.1 1017.6 1973.65 1007.85 1977.6 1003.85 1989.45 998.4 2000.4 993.35 2004.35 988.15 2009.55 981.25 2008.35 971.1 2007.35 962.2 2001.95 953.5 1999.75 949.95 1991 938.6 1984 929.5 1981.1 923.1 1976.6 910.95 1973.65 905.5 1968.6 896 1960.95 894.75 1955.9 893.95 1949.95 897.05 1947.3 898.4 1939.9 903.6 1931.7 909.4 1923.8 911.95 1914.45 915 1906.25 913.3 1897.15 911.4 1891.55 903.3 1885.75 894.9 1888.9 886.75 1891.65 879.65 1900.45 875.45 1905.9 872.85 1917.25 870.25 1927.3 867.95 1933.65 863.85 1941.8 858.55 1942.7 850.85 1943.15 846.65 1941.3 841.75 1940.05 838.5 1936.95 833.2
L 1910.85 788.25
Q 1908.1 783.55 1906.25 781.3 1903.35 777.7 1900.1 776.1 1894.45 773.4 1887.15 775.8 1881.25 777.75 1875.05 782.75 1865.25 790.7 1864.2 791.45 1857.7 795.9 1851.8 796.5 1843 797.4 1835.8 790.45 1828.75 783.7 1828.25 774.5 1827.75 765.75 1832.85 757.5 1837.7 749.75 1845.8 745 1849.3 742.95 1856.8 739.4 1863.15 736 1866.05 731.9 1870.85 725.2 1868.9 715.55 1867.15 707.15 1861.2 699.3 1853.5 690.25 1849.7 685.7 1847.359375 682.8912109375 1845.5 680.25 1850.2474609375 673.473828125 1855.2 666.85 1853.2201171875 663.1732421875 1853.1 662.95 1844.15 645.2 1840.45 630.95 1838.1 621.8 1838.05 621.6 1836.4 616.3 1834.1 612.9 1831.25 608.7 1826.7 606.75 1821.8 604.6 1817.6 606.45 1814.75 607.7 1812 611.15 1809.05 615.35 1807.5 617.3 1803.9 621.95 1797.95 625.9 1793.55 628.8 1786.55 632.1 1764.75 642.45 1741.2 648.55 1733.05 650.65 1729.05 652.8 1722.7 656.1 1720.9 661.4 1718.75 667.7 1723.5 675.3 1725.35 678.25 1733.7 687.75 1740.95 696 1744.3 705.65 1748 716.2 1746.05 725.95 1743.85 737.5 1733.15 749.25 1720.45 763.15 1705.9 766.9 1697.7 769.05 1689.55 767.55 1680.95 765.95 1674.9 760.75 1663.95 751.35 1661.6 729.75 1660.7 718.2 1660.2 712.45 1659.25 702.25 1657.15 695.5 1655 688.65 1650.9 683.95 1646.15 678.55 1640.1 677.8 1635.95 677.3 1631.05 679.15 1627.9 680.35 1622.55 683.4
L 1552.6 723.85
Q 1548.9 725.95 1547.1 727.35 1544.2 729.55 1542.75 732.05 1539.5 737.5 1541.85 745.3 1543.4 750.6 1548.3 758.5 1553.55 766.95 1556.25 772.85 1560 781.05 1561 788.4 1562.15 796.9 1559.35 804.65 1556.35 813 1549.75 817.3 1542.05 822.4 1531.75 820.45 1522 818.65 1514.9 811.75 1508.55 805.55 1504.55 796 1501.25 788.2 1499.35 777.55 1498.2 769.95 1497.4 766.2 1496.05 759.75 1493.9 755.35 1491.2 749.85 1486.7 746.35 1481.75 742.55 1476.3 742.6 1472.3 742.65 1467.75 745 1465.25 746.3 1460 749.9 1433.65 768.05 1404.6 780.15
M 1589.6 785.25
Q 1588.15 775.85 1584.2 764.7 1581.75 757.7 1576.3 744.9 1604.55 731.75 1629.9 712.85 1631.4 735.7 1634.4 748.05 1638.95 767.2 1649.4 778.9 1660.05 790.85 1676.9 795.5 1693.05 799.95 1709.5 796.35 1724.95 793.05 1739.2 783.2 1752.35 774.1 1762.95 760.55 1773.95 746.45 1776.8 733.7 1779.75 720.4 1775.15 703.95 1772.2 693.5 1763.7 675.25
L 1813.7 652.4
Q 1815.5302734375 657.3978515625 1818.2 663.1 1817.6072265625 667.642578125 1818.85 672.65 1821.9 684.85 1827.7 696.05 1833.55 707.3 1841.8 716.75 1826.55 722.1 1815.75 734.85 1804.85 747.8 1802.65 763.6 1800.4 779.6 1807.65 794.85 1815 810.25 1828.9 818.05 1842.95 826 1859.9 823.9 1876.95 821.8 1888.25 810.5
L 1907.5 841.85
Q 1890.75 841.05 1876.55 852.6 1862.5 864 1859.25 880.7 1856 897.15 1864.05 913.3 1872 929.3 1887.05 937.3 1901.85 945.15 1919.65 943.5 1937.15 941.85 1950.85 931.7
L 1975.7 970.7
Q 1957.75 974.3 1946.3 992.4 1935.9 1008.8 1934.95 1029.55 1934.3 1042.85 1937.35 1054 1940.85 1066.7 1948.75 1075.1 1961.3 1088.4 1983.15 1089.95 2001.75 1091.25 2022.65 1084 2024.700390625 1088.223828125 2026.75 1096.65 2023.978515625 1098.3990234375 2022.05 1101.2 2019.95 1104.25 2019.4 1107.8 2018.7 1111.95 2020.2 1116.35 2021.6 1120.45 2024.55 1123.95 2025.4 1125 2028.55 1128.2 2031.1 1130.8 2032.3 1132.6 2034.4 1135.85 2036 1142 2038.05 1149.75 2038.85 1151.8 2040.6 1156.1 2048 1166 2054.4 1174.6 2055.7 1180.65 2047.35 1182.15 2038.7 1187.05 2031.7 1191 2023.6 1197.7 2020.73515625 1200.193359375 2018.3 1202.3 2018.6951171875 1198.7921875 2019.75 1195.7 2012.401171875 1197.1453125 2004.35 1203.2 2001.95 1205.05 1994.85 1211.2 1989 1216.3 1985.05 1218.85 1973.4 1198.55 1958.55 1185.9 1941.05 1171 1921.65 1169.2 1905.15 1167.7 1889.65 1176.1 1874.3 1184.35 1865.95 1198.95 1857.75 1213.3 1857.8 1230.8 1857.9 1248.05 1865.9 1262.85 1848.2 1268.45 1832.35 1278.6 1816.55 1288.75 1804.1 1302.5 1792.7 1289.15 1778.2 1278.95 1763.7 1268.7 1747.3 1262.5 1724.55 1253.8 1708.4 1258.65 1697.55 1261.9 1689.35 1271.2 1681.5 1280.1 1678.5 1291.7 1675.7 1302.55 1677.25 1314.7 1678.65 1325.95 1683.55 1337.1 1665.85 1342.45 1649.75 1351.85 1633.65 1361.3 1620.3 1374.1 1612 1361.65 1607 1355.35 1599.1 1345.4 1591.1 1339 1581.65 1331.45 1570.9 1328.25 1559.1 1324.7 1548.45 1327.35 1541.1 1329.2 1534.3 1334 1528.05 1338.45 1522.85 1344.95 1508.75 1362.5 1508.55 1386.55 1508.3 1410.65 1522.25 1428.2 1499.2 1430.35 1477.6 1439.75 1456.05 1449.1 1438.65 1464.4 1430.4 1433 1415.8 1404.4 1425.2 1393.5 1430.75 1381 1436.65 1367.7 1437.5 1354.25 1438.4 1340 1433.4 1326.85 1428.25 1313.15 1418 1304.15 1407.4 1294.85 1393.15 1292.45 1378.5 1290.05 1366.2 1296.05
L 1346.1 1254.8
Q 1344.7 1251.95 1344.1 1250.25 1343.2 1247.65 1343.25 1245.45 1343.35 1242 1345.8 1238.1 1346.55 1236.95 1350.7 1231.65 1359.65 1220.45 1363.15 1206.1 1366.65 1191.7 1363.85 1177.65 1362.2 1169.4 1358.6 1162.6 1354.65 1155.15 1348.7 1150.4 1338.85 1142.55 1323 1141.5 1312.45 1140.85 1294.4 1143.45 1280.3 1111.35 1263.55 1080.55 1276.2 1067.05 1283.45 1051.8 1291.45 1035.05 1291.8 1018.35 1292.2 1000.4 1283.3 984.75 1274 968.4 1258.35 961.7 1245.6 956.25 1231.25 958.55 1216.85 960.8 1206.45 969.95
L 1186.15 913.3
Q 1188.478125 912.978125 1190.95 912.2 1194.5 911.05 1200.4 908.2 1245.15 886.55 1287.05 860.85 1296 881.05 1309.6 894.75 1325.05 910.45 1343.7 914.45 1362.5 918.55 1381.35 909.95 1399.95 901.4 1409.85 884.55 1419.6 868 1418.8 847.5 1417.95 827.3 1407.25 810.9
L 1468.8 780.25
Q 1472.6 800.85 1483.45 817.35 1495.2 835.2 1512.45 843.6 1530.85 852.55 1551.55 847.9 1573 843.1 1583.1 826.45 1588.4 817.75 1589.95 806.55 1591.4 796.4 1589.6 785.25 Z"/>
</g>

<g id="Layer0_0_FILL">
<path fill="#006699" stroke="none" d="
M 2600.3 1067.1
Q 2600.3 1061.15 2595.95 1054.85 2593.45 1051.2 2586.9 1044.55 2562.05 1019.4 2543.85 988.9 2538.65 980.15 2533.25 975.75 2526 969.9 2519.35 972.65 2514.9 974.45 2511.7 980.5 2508.5 987.9 2506.65 991.25 2502.9 998.1 2495.65 1003 2489.1 1007.5 2480.65 1009.7 2473.6 1011.55 2464.55 1012.05 2459.05 1012.35 2448.1 1012.2 2442 1012.15 2438.55 1011.5 2433.35 1010.5 2430.15 1007.8 2425.4 1003.7 2423.95 995.05 2422.2 984.6 2425.75 974.15 2429.3 963.75 2437.05 956.5 2439.9 953.85 2445.75 949.75 2452 945.35 2454.6 943.1 2459.2 939.15 2461.7 934.6 2464.65 929.3 2464.3 924.15 2463.9 918.6 2459.55 913.05 2456.7 909.4 2450.5 904.15
L 2401.45 862.45
Q 2389.9 852.65 2382.95 856.85 2379.3 859.05 2377.65 865.6 2375.35 874.95 2374.6 876.45 2372.6 880.45 2368 883.4 2364.55 885.6 2359 887.6 2349.2 891.15 2341.2 891.35 2331.2 891.6 2324.6 886.65 2318.55 882.1 2316.4 873.95 2314.4 866.15 2316.7 858.45 2318.85 851.35 2324.3 845.1 2329.2 839.45 2336.25 835.05
L 2344.85 829.65
Q 2349.5 826.25 2351.45 822.45 2353.8 817.75 2352.65 811.85 2351.6 806.45 2348 801.85 2345.05 798.05 2340.1 794.3 2338.4 793 2331 787.95 2305.45 770.65 2285.15 747.7 2279.1 740.9 2274.4 738 2267.65 733.75 2261.85 736 2258.2 737.35 2254.9 741.8 2251.35 747.15 2249.45 749.6 2243.4 757.55 2231.75 762.15 2224.15 765.1 2209.8 767.9 2204.2 768.95 2201.25 769.05 2196.45 769.2 2193 767.55 2188.65 765.5 2185.7 760.35 2183.55 756.65 2181.7 750.35 2178.9 740.75 2178.85 733.6 2178.85 724.3 2183.45 718.25 2186.05 714.8 2191.15 711.55 2194.05 709.7 2200 706.15 2204.9 703 2207.75 699.15 2211.15 694.5 2210.8 689.75 2210.45 685.15 2206.55 680.85 2204 678 2198.5 674.15
L 2163.4 649.7
Q 2152.25 641.95 2147.05 637.6 2138.3 630.45 2132.9 623.2 2123.2 610.2 2122.7 609.65 2116.2 602.65 2109.15 602.4 2103.3 602.15 2097.2 606.75 2093.65 609.45 2087.45 616.3 2065.25 640.95 2037.1 657.75 2027.55 663.45 2023.2 667.95 2016.55 674.75 2017.4 682.1 2017.75 685.15 2019.7 688.9 2020.8 691.05 2023.3 695.25 2028.85 705.5 2029.2 717.55 2029.55 729.55 2024.55 740.1 2019.55 750.6 2010.05 757.95 2000.5 765.3 1989.05 767.45 1979.85 769.2 1975 765.35 1971.7 762.75 1969.25 754.55 1966.75 746.25 1963.65 743.55 1960.45 740.75 1955.6 740.75 1951.15 740.75 1947 743 1943.6 744.85 1940.1 748.45 1938.55 750.05 1934.2 755.1 1907.55 786.3 1872.9 807.35 1865.35 811.95 1861.9 815.4 1856.55 820.7 1856.5 826.55 1856.45 833.1 1863.3 839.45 1867.2 843.1 1875.8 849.95 1883.2 857 1885.75 867.7 1888.25 878.2 1885.3 888.3 1882.4 898.1 1874.95 906.05 1867.8 913.7 1858.05 917.9 1851.7 920.65 1845.6 921.15 1838.75 921.65 1833.2 919.15 1829.45 917.45 1825.15 913.65 1820.25 909 1817.8 906.7 1808.85 898.35 1801.55 898.6 1794.15 898.9 1787.95 906.45 1784.8 910.25 1778.75 921.35 1772.95 932.05 1764.8 941.2 1756.65 950.4 1746.7 957.4 1741.25 961.1 1738.6 963.05 1734 966.45 1731.35 969.65 1728 973.7 1726.95 978.5 1725.75 983.75 1727.85 987.9 1730.45 993.05 1738.3 996.05 1742.75 997.8 1751.95 1000.85 1758.55 1003.85 1765.1 1010.85 1767.65 1013.6 1776.05 1024.2 1782.65 1032.5 1787.3 1036.4 1794.05 1041.95 1801.45 1043 1806.4048828125 1043.7287109375 1810.8 1041.75 1812.081640625 1046.6802734375 1816.3 1047.7 1820.35 1048.65 1824.3 1044.85 1826.7 1042.5 1830.15 1036.9 1838.25 1023.6 1849.65 1019.85 1856.15 1017.7 1862.8 1019.4 1869.75 1021.2 1873.45 1026.45 1877.3 1031.95 1876.6 1039.7 1876 1046.6 1872.1 1053.25 1869.4 1057.85 1863.6 1064.55 1856.7 1072.65 1854.6 1075.55 1850 1082 1848.25 1088.4 1846.15 1095.85 1848.35 1102.1 1849.75 1106 1853 1109.8 1855.3 1112.45 1859.6 1116.2 1875.4 1130.1 1877.15 1131.85 1886.7 1141.2 1891.35 1150.1 1891.65 1150.65 1894.85 1157.5 1896.9 1161.95 1898.75 1164.55 1901.3 1168.1 1904.7 1170.15 1908.5 1172.45 1912.3 1172.15 1917.05 1171.75 1921.5 1167.3 1923.45 1165.35 1928.45 1158.45 1938.45 1144.9 1953.35 1136.85 1965.3 1130.35 1973.8 1133.45 1977.85 1135 1981 1138.8 1983.85 1142.25 1985.4 1146.9 1989.3 1158.35 1984.05 1170.4 1978.75 1182.4 1967.7 1187.35 1961.95 1189.5 1959.2 1190.75 1954.45 1193 1952.5 1196.25 1946.65 1206.1 1963.8 1221.2 1977.65 1233.3 1988.7 1248.2 1999.75 1263.05 2007.4 1279.8 2010.45 1286.5 2012.6 1289.4 2016.2 1294.35 2020.8 1295.4 2025.35 1296.45 2030.25 1293.8 2034.3 1291.6 2038.1 1287.2 2042.9 1281.65 2051.55 1269.15 2059.7 1258.95 2068.4 1256.35 2080.3 1252.85 2091.65 1261.8 2102.5 1270.45 2104.75 1283.6 2106.75 1295.15 2102.6 1308.65 2099.4 1319.1 2091.95 1332.2 2088.35 1338.5 2087.2 1340.95 2084.85 1346 2084.35 1350.3 2083.75 1355.45 2085.95 1360.05 2088.3 1364.95 2092.75 1366.5 2096.4900390625 1367.8060546875 2100.3 1366.45 2100.724609375 1366.7625 2101.15 1367.05 2103.7951171875 1370.7771484375 2109.5 1374.15 2111.3072265625 1375.209765625 2113.3 1376.2 2124.3259765625 1386.3759765625 2134.55 1403.8 2135.85 1406.05 2146 1424.55 2152.9 1437.2 2158.15 1444.75 2162.5 1451.05 2166.65 1454.65 2172.05 1459.3 2177.9 1460.15 2184.8 1461.15 2192.65 1456.8 2197.4 1454.15 2205.6 1447.2 2234.4 1422.9 2268 1405.15 2273.4 1402.3 2275.8 1400.5 2279.8 1397.45 2281.35 1393.75 2283.2 1389.25 2281.5 1383.85 2279.95 1379 2276.15 1375.05 2273.2 1372.05 2268.15 1368.7 2262.3 1365 2259.5 1363.05 2250.05 1356.35 2243.2 1346.8 2236.3 1337.25 2233.05 1326.2 2244.9 1317.8 2260.25 1317.45 2275.6 1317.15 2287.8 1325 2294.8 1329.5 2307.8 1341 2319.65 1350.1 2329.7 1349.25 2339.65 1348.4 2348.7 1338.4 2351.85 1334.85 2356.05 1328.95 2358.4 1325.65 2362.9 1319.15 2376.4 1300.45 2396.75 1289.6 2406.35 1284.45 2409.75 1281.7 2416.25 1276.35 2416.7 1269.95 2417.05 1264.9 2413.35 1259.4 2411.4 1256.55 2405.65 1250.45 2389.95 1233.8 2381.15 1212.85 2378.2 1205.85 2377.2 1200.3 2375.9 1193.3 2377.5 1187.5 2380.05 1178.05 2390.15 1170.55 2403.2 1161 2420.4 1161 2437.65 1161 2450.65 1170.6 2456.15 1174.6 2464.05 1183.35 2473.05 1193.3 2477 1196.7 2484.7 1203.35 2493.5 1205.7 2503.45 1208.35 2511.05 1204.1 2514.65 1202.1 2518.05 1198.15 2520.25 1195.6 2523.55 1190.6 2530.25 1180.4 2536.6 1170.05 2540.2921875 1164.01640625 2541.75 1159.05 2542.208984375 1158.7109375 2542.65 1158.3 2545.65 1155.5 2548.25 1150.95 2549.6 1148.6 2552.45 1142.5 2566.45 1113.1 2588.15 1088.9 2594.2 1082.15 2596.35 1078.8 2600.25 1072.7 2600.3 1067.1
M 2057.25 680.8
Q 2058.35 679.6 2060.55 677.85
L 2107.25 639.3
Q 2120 651.8 2137.45 665.6 2148.2 674.1 2169.5 689.7 2155.4 700.65 2150.95 720.35 2146.75 738.75 2152.25 757.45 2155.3 767.85 2160.5 776.05 2166.3 785.15 2174.25 790.65 2184.2 797.6 2197.75 799.05 2210.05 800.4 2223.1 797.1 2234.05 794.35 2246.7 788 2254.2 784.3 2268.95 775.6
L 2315.1 813.25
Q 2302.35 822.05 2294.55 835.5 2286.55 849.3 2285.9 864.3 2285.25 879.7 2292.75 893.65 2300.4 907.85 2313.65 915 2332.3 925.1 2356.5 919.1 2377.85 913.85 2396.9 898.15
L 2431.05 923.9
Q 2412.35 935.5 2402.95 957.25 2393.75 978.55 2397.1 1000.9 2399.55 1017.6 2408.15 1026.75 2415.5 1034.6 2428.15 1037.95 2437.9 1040.5 2451.9 1040.55 2475.15 1040.7 2492.75 1034.85 2514.1 1027.7 2524.9 1012.35 2546.95 1041.7 2569.65 1067.65 2553.5 1089 2545.95 1099.9 2533.25 1118.15 2524.9 1133.85 2522.2052734375 1138.8908203125 2521.05 1143.6 2519.3732421875 1144.5421875 2517.85 1145.85 2514.1 1149.15 2510.25 1155.35 2506.15 1162.55 2503.9 1165.95 2500.35 1171.3 2496.7 1171.65 2493 1172 2489.95 1167.9 2489.1 1166.8 2485.5 1159.95 2480.15 1149.75 2464.4 1142.1 2447.6 1133.9 2430 1131.85 2411.2 1129.6 2394.6 1134.8 2377.05 1140.35 2364.35 1153.75 2351.2 1167.65 2348.3 1185 2345.15 1204.25 2355 1226.6 2361.8 1241.9 2378.05 1264.3 2352.8 1283.95 2333.7 1309.45 2331.65 1312.15 2330.15 1313.4 2327.95 1315.25 2325.65 1315.25 2323.65 1315.25 2321.6 1313.8 2320.4 1313 2318.2 1310.85 2301.45 1294.55 2277.35 1289.55 2253.3 1284.6 2231.45 1292.9 2221.95 1296.55 2215.35 1302.15 2207.75 1308.7 2205.2 1316.95 2201.7 1328.4 2207.9 1344.05 2212.8 1356.4 2221.3 1366.85 2229.8 1377.35 2240.9 1384.65
L 2181.05 1426.7
Q 2167.2 1400.55 2149.5 1377.35 2145.5150390625 1372.0783203125 2141.7 1367.8 2143.234375 1365.6615234375 2144.65 1363.5 2139.4064453125 1362.291796875 2135.1 1361 2133.21875 1359.2189453125 2131.35 1357.7 2123.934375 1351.6236328125 2116.25 1348.8 2136.708984375 1309.2001953125 2130.95 1277.55 2127.35 1257.85 2113.15 1243.6 2098.25 1228.6 2079.55 1228.3 2054.05 1227.85 2026.85 1256.2 2013.1 1228.35 1989.15 1208.35 2007.35 1194.45 2011.8 1170 2016.2 1145.6 2004.1 1126.15 1999.3 1118.5 1992.8 1113.25 1985.75 1107.55 1977.75 1105.7 1964 1102.55 1947.75 1110.8 1938.7 1115.35 1920.55 1129.15 1918.4 1130.8 1916.9 1131.45 1914.7 1132.45 1912.85 1132 1911.25 1131.6 1909.8 1130.1 1908.95 1129.2 1907.5 1127.1 1897.65 1112.75 1883.55 1102 1880.55 1099.7 1879.45 1098.5 1877.35 1096.3 1877 1094 1876.6 1091.6 1877.95 1088.8 1878.9 1086.95 1881.1 1084.15 1891.3 1071.05 1896 1061.4 1902.6 1047.9 1901.85 1035.8 1900.9 1020.15 1888.25 1008.4 1875.75 996.85 1859.8 996.3 1844.15 995.8 1830.4 1005.7 1820.833203125 1012.5837890625 1815.35 1022.15 1813.6701171875 1020.32890625 1810.25 1017.5 1787.75 998.95 1771.2 975 1789.75 955.9 1804.7 933.4 1812.05 942.85 1824.35 947.3 1836.05 951.55 1848.7 950.1 1871.1 947.55 1892.35 929.05 1909.15 914.4 1914.15 898.4 1919.3 882.3 1913.4 862.25 1909.05 847.5 1897.5 827.75
L 1950.9 781.3
Q 1960.6 794.8 1979.9 796.55 1997.75 798.2 2014.1 789.6 2038.25 776.9 2050.2 750.25 2062.1 723.65 2055.55 697.15 2054.35 692.35 2054.15 690.7 2053.7 687 2054.8 684.4 2055.55 682.6 2057.25 680.8 Z"/>
</g>
</defs>

<g transform="matrix( 1, 0, 0, 1, 0,0) ">
<use xlink:href="#Layer1_0_FILL"/>
</g>

<g transform="matrix( 1, 0, 0, 1, 0,0) ">
<use xlink:href="#Layer0_0_FILL"/>
</g>
</svg>
